<svg width="24" height="25" viewBox="0 0 24 25" fill="none" xmlns="http://www.w3.org/2000/svg">
<path d="M21.5088 4.2543L21.3731 4.12282L20.9461 3.70926L20.5638 4.09157C20.5558 4.3058 20.6322 4.5248 20.8017 4.69422L20.3814 4.27398L19.1713 5.48406L18.8098 5.84556C18.9661 6.01033 19.1074 6.18623 19.2328 6.37144C19.6869 7.04226 19.933 7.83513 19.933 8.66289C19.933 9.75719 19.503 10.786 18.7345 11.5576L18.7342 11.5579L19.1553 11.979L18.7339 11.5582L19.1556 11.9793C20.7705 10.3621 20.9603 7.86133 19.7252 6.03789L21.5088 4.2543ZM21.5088 4.2543L21.3752 4.1207L20.9549 3.70047M21.5088 4.2543C21.5814 4.1793 21.5814 4.05977 21.5088 3.98711L20.515 2.99336C20.4775 2.95586 20.4306 2.93945 20.3814 2.93945C20.3322 2.93945 20.2853 2.9582 20.2478 2.99336L18.4642 4.77695C17.6889 4.25161 16.7735 3.97152 15.8369 3.97305L20.9549 3.70047M20.9549 3.70047L20.8017 3.54719M20.9549 3.70047L20.8017 3.54719M20.8017 3.54719L20.3814 3.12695L20.2478 2.99337L20.3771 3.13126L20.3814 3.13586L20.7838 3.56505L20.4099 3.93895C20.4004 3.93929 20.3909 3.93945 20.3814 3.93945C20.1968 3.93945 19.979 3.87156 19.8079 3.70047L20.2281 4.1207L19.0181 5.33078L20.8017 3.54719ZM18.448 11.2727L18.4474 11.2734L17.0552 12.6655L16.6338 13.087L16.2124 12.6656L11.8342 8.28742L18.448 11.2727ZM20.5908 3.9119C20.6248 3.78453 20.6899 3.66479 20.784 3.5653L20.9318 3.7229C20.8383 3.81052 20.7212 3.87695 20.5908 3.9119ZM6.79307 11.3387L6.79358 11.3393C6.79332 11.339 6.79305 11.3387 6.79279 11.3385L6.79307 11.3387ZM12.8649 14.0239L12.8654 14.0244C12.8651 14.0241 12.8648 14.0238 12.8645 14.0235L12.8649 14.0239Z" stroke="white" stroke-width="2"/>
</svg>
