<svg width="32" height="46" viewBox="0 0 32 46" fill="none" xmlns="http://www.w3.org/2000/svg">
<path fill-rule="evenodd" clip-rule="evenodd" d="M20.1332 10.9516C20.1605 11.0679 20.7595 12.144 21.0769 13.1249C21.3543 13.9811 21.575 14.6661 21.9576 15.4082C22.4936 16.4462 24.0027 18.2602 24.8939 18.3595L25.4992 18.6872C27.4813 19.4568 28.5848 19.2475 30.6026 19.2137C31.5358 19.1989 32.3261 20.2094 31.7964 21.1523C31.3088 22.0212 30.1696 21.9473 28.9883 21.9388C25.598 21.9155 22.8362 20.8289 20.7637 18.3574C20.5535 18.1058 20.2004 17.5075 19.9902 17.387C19.9272 17.0171 19.6161 16.6302 19.4332 16.2454C19.305 15.9748 19.0549 15.2961 18.9351 15.1143C18.6661 14.089 18.3087 12.8987 17.695 12.2306C16.5032 10.9347 13.6489 11.0721 12.7052 13.2729C12.3394 14.1228 12.5391 15.3828 12.7724 16.3088L12.9174 16.6682C12.7892 17.719 14.3404 20.869 15.0635 21.905C17.1485 24.8986 20.192 26.2284 23.6664 26.9514C24.4315 27.11 28.7971 27.8415 29.3015 27.7464C29.911 28.1354 30.9347 27.7316 31.5106 28.6089C32.0486 29.4292 31.5442 30.3869 30.8149 30.611C30.3566 30.7527 28.7887 30.4038 28.2296 30.3256C23.9985 29.74 20.129 29.2918 16.6987 27.0973C14.4308 25.647 12.413 23.4377 11.0951 19.9642C10.5528 18.5371 9.90127 16.0826 9.85082 14.5055C9.80878 13.1313 10.2481 12.1397 10.9165 11.1228C11.2233 10.6577 11.3957 10.6619 11.629 10.2455L11.69 10.2032C12.392 9.83319 12.5454 9.44207 13.7771 9.03616C17.6992 7.7423 19.9188 10.8247 20.1332 10.9516ZM28.8979 12.645C26.6258 13.0256 27.3426 10.4526 25.1797 7.56683C19.0717 -0.581095 7.19196 1.93897 4.3187 10.9072C2.7444 15.8205 5.08799 19.6576 4.62348 22.2982C4.43851 23.3468 3.73649 24.4039 2.90835 24.8479C1.71869 25.4863 0.489099 24.332 1.00826 23.1925C1.35086 22.442 2.20212 22.5963 2.05709 21.1566C2.04028 20.9811 2.00664 20.8077 1.97091 20.6344L1.81327 20.1693V19.8944C1.34666 17.1376 0.867432 15.0699 1.2815 12.33C1.60519 10.1757 2.49638 8.03617 3.43171 6.64929C4.53519 5.01717 5.58403 3.82056 7.4715 2.49076C9.19293 1.27935 11.2801 0.475978 13.63 0.106003C17.1212 -0.302027 20.8184 0.459065 23.6096 2.44848C23.8366 2.60915 23.8997 2.61338 24.1393 2.82902C25.081 3.67468 25.392 3.71485 26.5754 5.08059C27.1261 5.71695 27.7314 6.54147 28.1707 7.34273C28.6667 8.2497 28.9862 9.1017 29.3646 10.1059C29.8732 11.459 30.0939 11.9537 28.8958 12.6429L28.8979 12.645ZM17.1716 4.44212C19.965 5.16093 23.019 5.91356 25.4971 12.4103C26.6048 15.3384 27.9962 14.7634 29.6189 14.645C30.9977 14.5456 30.9746 15.831 31.0376 16.3279C30.756 16.6513 30.7182 16.9896 30.2263 17.1841C29.8459 17.3342 29.1355 17.4082 28.7151 17.4335C26.0604 17.5963 24.1687 16.182 23.1094 13.552C21.8777 10.4928 20.4085 7.2941 16.5369 7.06577C15.7192 6.80151 13.8276 7.16937 13.0183 7.47169C12.0199 7.84589 11.1435 8.43785 10.5129 9.06153C9.34637 10.2159 8.15041 12.0552 8.16512 14.5308C8.08525 15.6006 8.4825 17.609 8.69689 18.6936C8.98485 20.1523 9.32325 22.2749 8.8146 23.8458C7.78048 23.9198 6.7968 24.1798 5.8993 24.5963C5.8951 24.5202 5.8993 24.4398 5.91192 24.3595C5.99599 23.8119 6.28184 23.5413 6.36592 22.6682C6.60343 20.1629 5.98338 19.3003 5.64498 16.3152C5.13002 11.7845 6.74636 8.18204 10.4982 5.76135C12.558 4.43155 14.6158 4.27933 17.1695 4.44L17.1716 4.44212ZM16.8374 14.0425C17.3019 15.9029 17.3293 17.0319 18.5399 18.8183C19.3891 20.0699 20.5199 21.0826 21.7495 21.7084C23.0569 22.3722 24.4714 22.8183 26.1424 23.1164C26.9642 23.2623 27.7734 23.3553 28.631 23.4441C29.1859 23.5011 30.7413 23.7062 31.1617 23.6745L31.5001 23.9472C32.4627 24.7083 31.9667 26.2918 30.6215 26.2834C29.3604 26.277 27.9374 25.943 26.6889 25.9007L26.3883 25.8923L26.0667 25.7802C24.0973 25.3722 23.3259 25.3299 21.2114 24.3975C17.8274 22.9071 15.6751 20.1925 14.683 16.5752C14.4119 15.5858 14.0104 14.2348 14.5968 13.5625C14.8701 13.2497 15.4124 13.0298 15.921 13.1714C16.4087 13.3067 16.6209 13.516 16.8395 14.0382L16.8374 14.0425ZM19.118 39.3678C20.0722 39.6575 24.5198 39.8393 24.9107 40.0486C25.4341 40.3276 25.7388 40.9429 25.5434 41.6807C25.0116 42.7822 24.1729 42.5961 22.8446 42.4777C21.8125 42.3868 20.8247 42.2473 19.8011 42.131C16.5264 41.7568 16.6567 41.964 14.0419 43.3953C13.609 43.6321 13.155 43.9301 12.5832 43.8012C12.1377 43.7018 11.7761 43.391 11.6311 42.89C11.2822 41.6913 12.3625 41.3001 13.1823 40.835C14.0209 40.3594 14.7944 39.8942 15.7928 39.5835C17.1821 39.1501 17.7875 39.3319 19.1201 39.3678H19.118ZM19.3681 33.5476L18.8699 33.3848C18.7102 33.3552 18.5925 33.334 18.4285 33.3044C18.2457 33.2706 18.0145 33.2347 17.8022 33.1882C17.8316 32.8964 17.8484 32.6004 17.8484 32.3023C17.8484 31.6766 17.7812 31.0677 17.653 30.4821C19.1474 30.7083 23.0022 31.4969 23.5697 31.5941C24.669 31.7844 25.8565 31.9556 27.0042 32.1015C27.8596 32.2093 29.7828 32.2558 30.3377 32.6617C31.3487 33.4017 30.8485 35.0486 29.4781 35.0338C27.4119 35.0085 19.5299 33.518 19.3702 33.5497L19.3681 33.5476ZM21.6801 35.5095L22.1467 35.5539C22.4536 35.8013 26.4829 36.2812 27.2186 36.3382C28.0866 36.4059 28.9295 36.8118 28.7529 37.9006C28.5974 38.8689 27.8302 39.0592 26.733 38.9577C24.1225 38.7167 21.6633 38.1924 19.0969 37.7801C18.3487 37.6596 17.1275 37.5898 16.4885 37.4376C16.5474 37.1057 16.8206 36.6131 16.9551 36.2072C16.9825 36.1247 17.0056 36.0359 17.0308 35.945C17.1926 35.6025 17.3335 35.2474 17.4491 34.8816C18.8258 34.9175 20.3433 35.3869 21.6801 35.5095ZM10.1619 29.148C11.2591 28.9218 12.331 29.6322 12.558 30.7358C12.7829 31.8393 12.0767 32.9176 10.9795 33.1459C9.88235 33.3721 8.8104 32.6617 8.58339 31.5582C8.35849 30.4546 9.06472 29.3742 10.1619 29.148ZM0.991441 45.873C2.04238 45.6299 3.63349 45.353 4.08119 44.3086C4.46163 43.4185 3.45273 42.4925 4.47004 42.0972L5.83625 41.5877L5.73536 39.7103C6.87037 39.2494 7.40635 39.2579 7.79519 38.6554C8.02009 38.3044 8.67377 37.2008 8.9344 36.9704C11.2107 37.3678 13.5291 36.6659 14.8091 34.6723C17.2242 30.9091 14.353 26.0614 10.1178 26.2263C8.4762 26.2897 6.92502 27.1417 5.94134 28.4525C4.37545 30.5391 4.61506 32.945 6.02962 35.038L1.71869 41.6067C1.46857 41.9894 1.26679 42.3044 1.01457 42.6828C0.472283 43.4989 0.81909 44.9153 0.993545 45.8752L0.991441 45.873Z" fill="#292482"/>
</svg>
